<?xml version="1.0" encoding="UTF-8" standalone="no"?>
<svg
   width="3999.998"
   height="410.92819"
   version="1.2"
   viewBox="0 0 2999.9896 308.19614"
   id="svg79"
   sodipodi:docname="logo-fisiquimicamente-dark.svg"
   inkscape:version="1.3.2 (091e20e, 2023-11-25)"
   xmlns:inkscape="http://www.inkscape.org/namespaces/inkscape"
   xmlns:sodipodi="http://sodipodi.sourceforge.net/DTD/sodipodi-0.dtd"
   xmlns:xlink="http://www.w3.org/1999/xlink"
   xmlns="http://www.w3.org/2000/svg"
   xmlns:svg="http://www.w3.org/2000/svg">
  <sodipodi:namedview
     id="namedview79"
     pagecolor="#ffffff"
     bordercolor="#000000"
     borderopacity="0.25"
     inkscape:showpageshadow="2"
     inkscape:pageopacity="0.0"
     inkscape:pagecheckerboard="0"
     inkscape:deskcolor="#d1d1d1"
     inkscape:zoom="0.19507909"
     inkscape:cx="2042.7612"
     inkscape:cy="243.49099"
     inkscape:window-width="1512"
     inkscape:window-height="818"
     inkscape:window-x="1920"
     inkscape:window-y="90"
     inkscape:window-maximized="0"
     inkscape:current-layer="svg79" />
  <defs
     id="defs9">
    <symbol
       id="a"
       overflow="visible">
      <path
         d="m 7.39,-3.016 c 0,0.172 0.016,0.297 0.032,0.438 0.031,0.172 0.219,0.234 0.39,0.234 0.047,0 0.079,-0.062 0.079,-0.125 a 4.585,4.585 0 0 1 -0.11,-0.656 c 0,-0.078 0.032,-0.11 0.11,-0.11 0.265,-0.062 0.437,-0.296 0.437,-0.5 0,-0.218 -0.203,-0.359 -0.312,-0.359 a 0.54,0.54 0 0 0 -0.532,0.375 c -0.03,0.063 -0.062,0.094 -0.14,0.094 a 5.477,5.477 0 0 0 -1.094,0.14 c -0.063,0 -0.094,0 -0.078,-0.078 0.125,-0.578 0.203,-1.093 0.375,-1.39 0.078,-0.14 -0.11,-0.203 -0.203,-0.203 -0.047,0 -0.078,0.015 -0.125,0.047 -0.485,0.39 -1.11,1.078 -1.625,2.14 A 0.244,0.244 0 0 1 4.469,-2.844 C 3.672,-2.438 3,-1.922 2.687,-1.594 c -0.109,0.125 0.141,0.172 0.204,0.172 a 0.416,0.416 0 0 0 0.187,-0.047 c 0.25,-0.218 0.688,-0.5 1.125,-0.75 0.063,-0.031 0.078,-0.015 0.047,0.047 -0.422,1.078 -0.797,2.016 -1.969,2.016 -0.5,0 -0.86,-0.266 -1.031,-0.438 C 1.203,-0.641 1.203,-0.656 1.281,-0.672 1.719,-0.703 1.938,-0.984 1.938,-1.328 1.938,-1.672 1.609,-2 1.172,-2 c -0.469,0 -0.719,0.422 -0.719,0.922 0,0.766 0.813,1.281 1.969,1.281 1.64,0 2.984,-0.953 3.594,-3.078 A 0.17,0.17 0 0 1 6.14,-3 5.26,5.26 0 0 1 7.296,-3.188 c 0.094,0 0.094,0.079 0.094,0.172 z m 1.548,-3.609 c -0.391,0.25 -1.047,0.39 -1.391,0.39 -1.063,0 -2.406,-0.374 -3.516,-0.374 -0.843,0 -1.593,0.078 -2.125,0.359 -0.672,0.344 -1.031,0.703 -1.031,1.484 0,0.625 0.469,1 0.984,1.25 0.297,0.157 0.657,0.172 0.954,0.172 0.953,0 1.5,-0.828 1.53,-1.937 A 0.1,0.1 0 0 0 4.25,-5.375 c -0.11,0 -0.25,0.063 -0.266,0.188 -0.109,1 -0.53,1.484 -1.156,1.484 -0.39,0 -1.047,-0.281 -1.047,-1.031 0,-0.86 0.61,-1.563 1.766,-1.563 1.031,0 2.14,0.969 3.656,0.969 0.672,0 1.234,-0.422 1.703,-0.86 0.078,-0.078 0.125,-0.25 0.125,-0.359 0,-0.062 -0.031,-0.125 -0.094,-0.078 z m 0,0"
         style="stroke:none"
         id="path1" />
    </symbol>
    <symbol
       id="e"
       overflow="visible">
      <path
         d="m 2.047,0.25 c 0.64,0 1.187,0.578 1.734,1.11 0.5,0.468 1.188,0.718 1.844,0.718 0.953,0 1.39,-0.36 1.813,-1.047 C 7.468,0.984 7.453,0.938 7.406,0.938 7.25,0.938 7.016,1.063 6.891,1.172 6.625,1.453 6.297,1.609 6.156,1.609 5.609,1.609 5.281,1.031 4.688,0.531 A 2.421,2.421 0 0 0 4.188,0.219 C 4.155,0.203 4.03,0.156 4.14,0.14 c 1.796,-0.344 2.812,-2.079 2.812,-3.844 0,-1.172 -1.047,-1.875 -1.812,-1.875 -1.11,0 -1.657,0.969 -1.657,1.969 0,0.64 0.344,0.89 0.75,1.14 0.047,0.031 0.11,0.016 0.11,-0.031 0,-0.156 -0.172,-0.36 -0.266,-0.594 A 0.992,0.992 0 0 1 4,-3.53 c 0,-0.656 0.297,-1.64 0.89,-1.64 0.579,0 1.016,0.937 1.016,1.671 0,1.14 -0.187,2.016 -0.86,2.625 -0.405,0.375 -0.843,0.703 -1.593,0.703 -0.703,0 -1.375,-0.781 -1.375,-1.75 0,-2.125 1.344,-4.312 3.14,-4.312 0.5,0 1.141,0.375 1.485,0.843 0.078,0.11 0.25,0.204 0.39,0.204 0.032,0 0.063,-0.032 0.048,-0.094 -0.157,-0.703 -1.016,-1.344 -2.079,-1.344 -2.64,0 -4.468,1.969 -4.468,4.438 0,0.906 0.547,1.624 1.265,2.015 0.063,0.031 0.047,0.047 0,0.078 C 1.5,0.017 1.141,0.313 0.891,0.626 0.797,0.751 1.031,0.798 1.109,0.798 1.172,0.798 1.25,0.782 1.297,0.735 1.563,0.485 1.859,0.251 2.047,0.251 Z m 0,0"
         style="stroke:none"
         id="path2" />
    </symbol>
    <symbol
       id="c"
       overflow="visible">
      <path
         d="M 0.5,0.031 A 0.385,0.385 0 0 1 0.375,0 C 0.32,-0.02 0.297,-0.05 0.297,-0.094 c 0,-0.05 0.023,-0.086 0.078,-0.11 0.05,-0.019 0.102,-0.034 0.156,-0.046 A 1.54,1.54 0 0 0 1,-0.406 c 0.133,-0.07 0.203,-0.196 0.203,-0.375 v -2.735 c 0,-0.195 -0.047,-0.351 -0.14,-0.468 C 0.977,-4.098 0.832,-4.172 0.625,-4.204 A 0.768,0.768 0 0 1 0.453,-4.281 c -0.055,-0.032 -0.078,-0.067 -0.078,-0.11 0,-0.039 0.023,-0.07 0.078,-0.093 a 0.385,0.385 0 0 1 0.125,-0.032 c 0.133,0 0.254,0.008 0.36,0.016 0.101,0 0.203,0.008 0.296,0.016 0.102,0.011 0.22,0.015 0.344,0.015 0.113,0 0.219,-0.004 0.313,-0.015 C 1.992,-4.492 2.098,-4.5 2.203,-4.5 2.316,-4.508 2.438,-4.516 2.563,-4.516 a 0.41,0.41 0 0 1 0.124,0.032 c 0.051,0.023 0.079,0.054 0.079,0.093 0,0.043 -0.028,0.079 -0.079,0.11 A 0.857,0.857 0 0 1 2.516,-4.203 0.74,0.74 0 0 0 2.187,-4.078 0.465,0.465 0 0 0 2,-3.86 0.832,0.832 0 0 0 1.937,-3.517 v 2.737 c 0,0.18 0.067,0.304 0.204,0.375 0.132,0.074 0.289,0.125 0.468,0.156 0.051,0.012 0.102,0.027 0.157,0.047 0.05,0.023 0.078,0.058 0.078,0.11 0,0.042 -0.028,0.073 -0.078,0.093 A 0.41,0.41 0 0 1 2.641,0.032 C 2.516,0.032 2.395,0.024 2.281,0.017 2.176,0.005 2.066,-0.003 1.953,-0.015 A 5.55,5.55 0 0 0 1.578,-0.03 c -0.148,0 -0.277,0.008 -0.39,0.015 -0.106,0.012 -0.215,0.02 -0.329,0.032 A 4.783,4.783 0 0 1 0.5,0.03 Z m 0,0"
         style="stroke:none"
         id="path3" />
    </symbol>
    <symbol
       id="b"
       overflow="visible">
      <path
         d="M 1.922,0.14 C 1.66,0.14 1.453,0.11 1.297,0.047 A 3.389,3.389 0 0 0 0.875,-0.063 C 0.82,-0.082 0.789,-0.098 0.781,-0.108 0.781,-0.116 0.773,-0.132 0.766,-0.155 A 1.789,1.789 0 0 1 0.687,-0.405 C 0.664,-0.531 0.645,-0.656 0.625,-0.781 0.613,-0.914 0.602,-1.02 0.594,-1.094 v -0.14 c 0.008,-0.063 0.047,-0.094 0.11,-0.094 0.05,0 0.085,0.031 0.109,0.094 0.03,0.062 0.054,0.117 0.078,0.156 0.05,0.094 0.125,0.226 0.218,0.39 0.094,0.157 0.211,0.297 0.36,0.422 0.144,0.118 0.32,0.172 0.531,0.172 0.313,0 0.535,-0.082 0.672,-0.25 A 0.812,0.812 0 0 0 2.89,-0.89 0.822,0.822 0 0 0 2.78,-1.296 C 2.718,-1.421 2.6,-1.534 2.436,-1.64 l -0.78,-0.5 A 2.332,2.332 0 0 1 1.046,-2.67 1.196,1.196 0 0 1 0.827,-3.39 c 0,-0.257 0.078,-0.472 0.235,-0.64 0.156,-0.176 0.351,-0.305 0.593,-0.39 0.25,-0.095 0.5,-0.141 0.75,-0.141 0.239,0 0.438,0.015 0.594,0.046 0.156,0.032 0.27,0.055 0.344,0.063 0.039,0 0.07,0.016 0.094,0.047 0.019,0.031 0.035,0.062 0.046,0.093 0.02,0.118 0.032,0.247 0.032,0.391 a 9.7,9.7 0 0 0 0.03,0.406 0.385,0.385 0 0 1 -0.03,0.125 C 3.491,-3.335 3.46,-3.311 3.421,-3.311 A 0.169,0.169 0 0 1 3.296,-3.374 0.29,0.29 0 0 1 3.233,-3.514 1.17,1.17 0 0 0 2.97,-4 0.98,0.98 0 0 0 2.61,-4.234 0.78,0.78 0 0 0 2.314,-4.313 c -0.231,0 -0.418,0.07 -0.563,0.204 a 0.604,0.604 0 0 0 -0.219,0.484 c 0,0.219 0.051,0.383 0.157,0.484 0.113,0.106 0.265,0.215 0.453,0.329 l 0.843,0.515 c 0.207,0.137 0.375,0.305 0.5,0.5 0.133,0.188 0.204,0.406 0.204,0.656 0,0.18 -0.07,0.368 -0.204,0.563 -0.136,0.2 -0.336,0.371 -0.593,0.515 C 2.63,0.07 2.306,0.141 1.922,0.141 Z m 0,0"
         style="stroke:none"
         id="path4" />
    </symbol>
    <symbol
       id="f"
       overflow="visible">
      <path
         d="m 3.297,0.172 c -0.074,0 -0.14,-0.063 -0.203,-0.188 A 27.61,27.61 0 0 1 2.422,-1.546 C 2.222,-2.066 1.984,-2.641 1.703,-3.266 1.68,-3.316 1.66,-3.344 1.641,-3.344 c -0.012,0 -0.024,0.028 -0.032,0.078 -0.011,0.188 -0.027,0.418 -0.046,0.688 -0.024,0.262 -0.043,0.547 -0.063,0.86 -0.023,0.312 -0.04,0.624 -0.047,0.937 0,0.086 0.016,0.187 0.047,0.312 0.031,0.117 0.129,0.188 0.297,0.219 0.062,0.012 0.117,0.027 0.172,0.047 0.05,0.023 0.078,0.058 0.078,0.11 C 2.047,-0.051 2.02,-0.02 1.969,0 A 0.41,0.41 0 0 1 1.844,0.031 2.71,2.71 0 0 1 1.547,0.016 C 1.484,0.004 1.426,-0.004 1.375,-0.016 A 1.146,1.146 0 0 0 1.172,-0.031 C 1.078,-0.031 1,-0.023 0.938,-0.016 0.882,-0.004 0.82,0.004 0.75,0.016 A 2.77,2.77 0 0 1 0.453,0.03 0.385,0.385 0 0 1 0.328,0 C 0.273,-0.02 0.25,-0.05 0.25,-0.094 0.25,-0.144 0.273,-0.18 0.328,-0.204 0.378,-0.223 0.43,-0.238 0.484,-0.25 0.66,-0.281 0.785,-0.348 0.86,-0.453 A 0.698,0.698 0 0 0 1,-0.781 c 0.04,-0.188 0.078,-0.399 0.11,-0.64 0.038,-0.25 0.077,-0.505 0.109,-0.766 0.031,-0.258 0.054,-0.504 0.078,-0.735 0.031,-0.226 0.05,-0.426 0.062,-0.594 A 3.68,3.68 0 0 0 1.391,-3.859 0.225,0.225 0 0 0 1.25,-4.079 1.473,1.473 0 0 0 0.797,-4.203 0.768,0.768 0 0 1 0.625,-4.281 c -0.043,-0.032 -0.063,-0.067 -0.063,-0.11 0,-0.039 0.02,-0.07 0.063,-0.093 A 0.385,0.385 0 0 1 0.75,-4.516 c 0.133,0 0.227,0.008 0.281,0.016 0.051,0 0.102,0.008 0.157,0.016 H 1.719 A 0.806,0.806 0 0 1 1.875,-4.5 h 0.078 c 0.02,0 0.035,0.008 0.047,0.016 l 1.469,3.421 c 0.031,0.075 0.054,0.118 0.078,0.125 0.031,0 0.055,-0.03 0.078,-0.093 0.195,-0.457 0.39,-0.907 0.578,-1.344 0.188,-0.438 0.395,-0.938 0.625,-1.5 0.04,-0.113 0.082,-0.238 0.125,-0.375 0.05,-0.133 0.094,-0.203 0.125,-0.203 l 0.375,-0.016 c 0.176,0 0.344,-0.004 0.5,-0.015 A 3.7,3.7 0 0 1 6.375,-4.516 0.31,0.31 0 0 1 6.5,-4.484 c 0.05,0.023 0.078,0.054 0.078,0.093 0,0.043 -0.027,0.079 -0.078,0.11 A 0.532,0.532 0 0 1 6.344,-4.203 C 6.133,-4.172 5.984,-4.141 5.891,-4.109 5.805,-4.079 5.766,-4 5.766,-3.875 v 1.312 c 0.007,0.2 0.015,0.399 0.015,0.594 0.008,0.188 0.02,0.387 0.032,0.594 0.007,0.21 0.019,0.422 0.03,0.64 0.009,0.157 0.063,0.274 0.157,0.344 0.102,0.063 0.238,0.11 0.406,0.141 0.051,0.012 0.102,0.027 0.157,0.047 0.062,0.023 0.093,0.058 0.093,0.11 0,0.042 -0.027,0.073 -0.078,0.093 A 0.41,0.41 0 0 1 6.453,0.031 C 6.328,0.031 6.219,0.023 6.125,0.016 6.031,0.004 5.937,-0.004 5.844,-0.016 a 3.176,3.176 0 0 0 -0.64,0 C 5.098,-0.004 4.992,0.004 4.891,0.016 4.797,0.023 4.68,0.031 4.547,0.031 A 0.385,0.385 0 0 1 4.422,0 C 4.367,-0.02 4.344,-0.05 4.344,-0.094 c 0,-0.05 0.023,-0.086 0.078,-0.11 0.05,-0.019 0.101,-0.034 0.156,-0.046 0.176,-0.031 0.297,-0.078 0.36,-0.14 0.07,-0.063 0.109,-0.165 0.109,-0.313 v -1.64 c 0,-0.27 -0.008,-0.563 -0.016,-0.876 C 5.02,-3.3 5,-3.336 4.97,-3.329 4.946,-3.316 4.923,-3.281 4.892,-3.219 L 3.469,0.016 A 0.388,0.388 0 0 1 3.375,0.125 C 3.352,0.156 3.328,0.172 3.297,0.172 Z m 0,0"
         style="stroke:none"
         id="path5" />
    </symbol>
    <symbol
       id="g"
       overflow="visible">
      <path
         d="M 3.266,0.14 A 3.03,3.03 0 0 1 2.25,-0.03 2.746,2.746 0 0 1 1.406,-0.515 2.334,2.334 0 0 1 0.813,-1.249 2.091,2.091 0 0 1 0.593,-2.218 c 0,-0.344 0.079,-0.66 0.235,-0.953 0.156,-0.289 0.363,-0.539 0.625,-0.75 0.258,-0.207 0.555,-0.363 0.89,-0.469 a 3.174,3.174 0 0 1 1.032,-0.171 c 0.164,0 0.32,0.007 0.469,0.015 0.144,0.012 0.281,0.031 0.406,0.063 0.133,0.023 0.266,0.054 0.39,0.093 a 0.49,0.49 0 0 1 0.141,0.063 c 0.032,0.023 0.051,0.055 0.063,0.094 0.031,0.093 0.05,0.23 0.062,0.406 0.02,0.18 0.032,0.324 0.032,0.437 0,0.086 -0.024,0.141 -0.063,0.172 -0.031,0.024 -0.07,0.024 -0.11,0 A 0.356,0.356 0 0 1 4.656,-3.374 C 4.57,-3.612 4.469,-3.796 4.344,-3.921 A 0.863,0.863 0 0 0 3.906,-4.171 2.498,2.498 0 0 0 3.234,-4.249 c -0.336,0 -0.632,0.09 -0.89,0.266 A 1.834,1.834 0 0 0 1.719,-3.296 C 1.57,-3.015 1.5,-2.706 1.5,-2.374 c 0,0.367 0.078,0.715 0.234,1.047 0.157,0.336 0.375,0.605 0.657,0.812 a 1.654,1.654 0 0 0 1.515,0.22 C 4.082,-0.366 4.25,-0.46 4.406,-0.577 4.563,-0.702 4.676,-0.851 4.75,-1.03 a 0.274,0.274 0 0 1 0.188,-0.172 c 0.093,-0.031 0.14,0.008 0.14,0.11 a 0.767,0.767 0 0 1 -0.047,0.187 2.048,2.048 0 0 1 -0.11,0.297 C 4.879,-0.503 4.844,-0.413 4.812,-0.343 A 0.381,0.381 0 0 1 4.734,-0.218 0.693,0.693 0 0 1 4.609,-0.124 3.222,3.222 0 0 1 4,0.047 3.18,3.18 0 0 1 3.266,0.141 Z m 0,0"
         style="stroke:none"
         id="path6" />
    </symbol>
    <symbol
       id="h"
       overflow="visible">
      <path
         d="M 0.5,0.031 A 0.385,0.385 0 0 1 0.375,0 C 0.32,-0.02 0.297,-0.05 0.297,-0.094 c 0,-0.05 0.023,-0.086 0.078,-0.11 0.05,-0.019 0.102,-0.034 0.156,-0.046 A 1.54,1.54 0 0 0 1,-0.406 c 0.133,-0.07 0.203,-0.196 0.203,-0.375 v -2.735 c 0,-0.195 -0.047,-0.351 -0.14,-0.468 C 0.977,-4.098 0.832,-4.172 0.625,-4.204 A 0.768,0.768 0 0 1 0.453,-4.281 c -0.055,-0.032 -0.078,-0.067 -0.078,-0.11 0,-0.039 0.023,-0.07 0.078,-0.093 a 0.385,0.385 0 0 1 0.125,-0.032 c 0.133,0 0.25,0.008 0.344,0.016 0.094,0 0.18,0.008 0.265,0.016 0.094,0.011 0.196,0.015 0.313,0.015 H 2.812 C 3.02,-4.477 3.207,-4.484 3.375,-4.484 3.551,-4.492 3.695,-4.5 3.813,-4.5 c 0.019,0 0.039,0.008 0.062,0.016 0.031,0.011 0.047,0.027 0.047,0.046 0.02,0.25 0.039,0.45 0.062,0.594 0.032,0.149 0.047,0.258 0.047,0.328 0,0.024 -0.011,0.047 -0.031,0.079 -0.012,0.03 -0.027,0.046 -0.047,0.046 A 0.186,0.186 0 0 1 3.843,-3.437 0.327,0.327 0 0 1 3.766,-3.563 2.62,2.62 0 0 0 3.531,-3.984 C 3.457,-4.098 3.332,-4.156 3.156,-4.156 H 2.187 a 0.456,0.456 0 0 0 -0.156,0.047 c -0.062,0.023 -0.094,0.062 -0.094,0.125 v 1.328 c 0,0.031 0.008,0.086 0.032,0.156 0.031,0.063 0.054,0.094 0.078,0.094 h 0.797 c 0.101,0 0.18,-0.035 0.234,-0.11 a 0.857,0.857 0 0 0 0.125,-0.28 c 0.02,-0.032 0.04,-0.067 0.063,-0.11 0.03,-0.04 0.062,-0.063 0.093,-0.063 0.04,0 0.07,0.016 0.094,0.047 0.02,0.031 0.031,0.063 0.031,0.094 a 4.384,4.384 0 0 0 -0.03,0.297 v 0.265 c 0,0.086 0.003,0.172 0.015,0.266 0.008,0.094 0.015,0.188 0.015,0.281 0.008,0.024 0.004,0.055 -0.015,0.094 -0.024,0.043 -0.047,0.063 -0.078,0.063 -0.063,0 -0.106,-0.032 -0.125,-0.094 A 0.49,0.49 0 0 0 3.203,-1.796 C 3.18,-1.898 3.133,-1.969 3.063,-2 A 0.592,0.592 0 0 0 2.891,-2.078 4.535,4.535 0 0 0 2.547,-2.094 H 2.187 A 0.498,0.498 0 0 0 1.984,-2.063 C 1.954,-2.051 1.938,-2 1.938,-1.906 v 1.125 c 0,0.18 0.015,0.293 0.046,0.344 0.04,0.042 0.133,0.062 0.282,0.062 h 1 a 0.762,0.762 0 0 0 0.515,-0.172 c 0.145,-0.125 0.25,-0.258 0.313,-0.406 a 0.369,0.369 0 0 1 0.047,-0.078 c 0.02,-0.04 0.05,-0.063 0.093,-0.063 0.051,0 0.082,0.024 0.094,0.063 a 0.392,0.392 0 0 1 0.016,0.093 C 4.32,-0.801 4.297,-0.656 4.266,-0.5 A 5.965,5.965 0 0 1 4.172,-0.094 0.289,0.289 0 0 1 4.094,-0.016 0.179,0.179 0 0 1 4,0.016 C 3.75,0.016 3.508,0.008 3.281,0 H 2.625 C 2.415,-0.008 2.211,-0.016 2.015,-0.016 1.828,-0.023 1.645,-0.031 1.469,-0.031 1.352,-0.031 1.242,-0.023 1.141,-0.016 1.047,-0.004 0.945,0.004 0.844,0.016 0.75,0.023 0.633,0.03 0.5,0.03 Z m 0,0"
         style="stroke:none"
         id="path7" />
    </symbol>
    <symbol
       id="i"
       overflow="visible">
      <path
         d="M 4.875,0.14 A 0.273,0.273 0 0 1 4.735,0.094 0.72,0.72 0 0 1 4.453,-0.125 L 1.984,-3.172 A 1.04,1.04 0 0 0 1.828,-3.297 C 1.785,-3.336 1.754,-3.359 1.734,-3.359 c -0.03,0 -0.054,0.023 -0.062,0.062 v 1.875 c 0.008,0.242 0.023,0.453 0.047,0.64 0.008,0.18 0.05,0.305 0.125,0.376 0.082,0.074 0.207,0.125 0.375,0.156 0.05,0.012 0.101,0.027 0.156,0.047 0.063,0.023 0.094,0.058 0.094,0.11 0,0.042 -0.028,0.073 -0.078,0.093 A 0.41,0.41 0 0 1 2.266,0.031 C 2.066,0.031 1.922,0.02 1.828,0 A 1.891,1.891 0 0 0 1.453,-0.031 C 1.285,-0.031 1.145,-0.02 1.031,0 A 2.49,2.49 0 0 1 0.594,0.031 0.4,0.4 0 0 1 0.454,0 C 0.41,-0.02 0.39,-0.05 0.39,-0.094 c 0,-0.05 0.023,-0.086 0.078,-0.11 0.05,-0.019 0.101,-0.034 0.156,-0.046 A 0.911,0.911 0 0 0 1.03,-0.406 c 0.102,-0.07 0.16,-0.196 0.172,-0.375 0.008,-0.063 0.016,-0.176 0.016,-0.344 0.008,-0.176 0.015,-0.375 0.015,-0.594 0.008,-0.226 0.016,-0.46 0.016,-0.703 0.008,-0.25 0.016,-0.476 0.016,-0.687 0.007,-0.207 0.015,-0.38 0.015,-0.516 0,-0.05 -0.043,-0.117 -0.125,-0.203 A 1.443,1.443 0 0 0 0.874,-4.063 1.103,1.103 0 0 0 0.53,-4.203 0.834,0.834 0 0 1 0.374,-4.281 c -0.055,-0.032 -0.078,-0.067 -0.078,-0.11 0,-0.039 0.023,-0.07 0.078,-0.093 A 0.385,0.385 0 0 1 0.5,-4.516 c 0.094,0 0.191,0.008 0.297,0.016 0.101,0 0.207,0.008 0.312,0.016 0.114,0 0.227,0.007 0.344,0.015 h 0.36 c 0.039,0 0.078,0.016 0.109,0.047 0.039,0.031 0.078,0.063 0.11,0.094 l 2.421,2.906 A 0.292,0.292 0 0 0 4.5,-1.344 c 0.031,0.032 0.055,0.047 0.078,0.047 0.008,0 0.02,-0.008 0.031,-0.031 A 0.255,0.255 0 0 0 4.625,-1.422 L 4.578,-3.5 A 0.803,0.803 0 0 0 4.453,-3.969 C 4.367,-4.094 4.219,-4.172 4,-4.203 A 0.834,0.834 0 0 1 3.844,-4.281 c -0.055,-0.032 -0.078,-0.067 -0.078,-0.11 0,-0.039 0.023,-0.07 0.078,-0.093 a 0.385,0.385 0 0 1 0.125,-0.032 c 0.133,0 0.238,0.008 0.312,0.016 0.082,0 0.16,0.008 0.235,0.016 0.082,0.011 0.187,0.015 0.312,0.015 0.113,0 0.203,-0.004 0.266,-0.015 C 5.156,-4.492 5.219,-4.5 5.281,-4.5 a 2.71,2.71 0 0 1 0.297,-0.016 0.41,0.41 0 0 1 0.125,0.032 c 0.05,0.023 0.078,0.054 0.078,0.093 0,0.043 -0.027,0.079 -0.078,0.11 a 1.165,1.165 0 0 1 -0.156,0.078 c -0.211,0.031 -0.352,0.11 -0.422,0.234 A 0.999,0.999 0 0 0 5.031,-3.5 v 3.297 A 0.522,0.522 0 0 1 4.984,0.031 c -0.023,0.07 -0.058,0.11 -0.109,0.11 z m 0,0"
         style="stroke:none"
         id="path8" />
    </symbol>
    <clipPath
       id="d">
      <path
         d="m 20,0 h 8 v 8.738 h -8 z m 0,0"
         id="path9" />
    </clipPath>
  </defs>
  <use
     xlink:href="#a"
     width="100%"
     height="100%"
     y="6.6680002"
     style="fill:#ffffff;fill-opacity:1"
     transform="matrix(35.378593,0,0,35.378593,-16.026628,-0.94215252)"
     id="use9" />
  <use
     xlink:href="#b"
     width="100%"
     height="100%"
     x="12.154"
     y="6.6680002"
     style="fill:#ffffff;fill-opacity:1"
     transform="matrix(35.378593,0,0,35.378593,17.583035,-0.94215252)"
     id="use10" />
  <use
     xlink:href="#c"
     width="100%"
     height="100%"
     x="16.538"
     y="6.6680002"
     style="fill:#ffffff;fill-opacity:1"
     transform="matrix(35.378593,0,0,35.378593,8.4199794,-0.94215252)"
     id="use11" />
  <g
     clip-path="url(#d)"
     style="fill:#ffffff;fill-opacity:1"
     transform="matrix(35.378593,0,0,35.378593,3.0070547,-0.94215252)"
     id="g12">
    <use
       xlink:href="#e"
       width="100%"
       height="100%"
       x="19.676001"
       y="6.6680002"
       style="fill:#ffffff;fill-opacity:1"
       id="use12" />
  </g>
  <use
     xlink:href="#c"
     width="100%"
     height="100%"
     x="33.455002"
     y="6.6680002"
     style="clip-rule:nonzero;fill:#ffffff;fill-opacity:1"
     transform="matrix(35.378593,0,0,35.378593,-35.980155,-0.94215252)"
     id="use13" />
  <use
     xlink:href="#f"
     width="100%"
     height="100%"
     x="36.592999"
     y="6.6680002"
     style="clip-rule:nonzero;fill:#ffffff;fill-opacity:1"
     transform="matrix(35.378593,0,0,35.378593,-29.258222,-0.94215252)"
     id="use14" />
  <use
     xlink:href="#g"
     width="100%"
     height="100%"
     x="46.775002"
     y="6.6680002"
     style="clip-rule:nonzero;fill:#ffffff;fill-opacity:1"
     transform="matrix(35.378593,0,0,35.378593,-26.675585,-0.94215252)"
     id="use15" />
  <use
     xlink:href="#f"
     width="100%"
     height="100%"
     x="57.772999"
     y="6.6680002"
     style="clip-rule:nonzero;fill:#ffffff;fill-opacity:1"
     transform="matrix(35.378593,0,0,35.378593,-45.603132,-0.94215252)"
     id="use16" />
  <use
     xlink:href="#h"
     width="100%"
     height="100%"
     x="64.817001"
     y="6.6680002"
     style="clip-rule:nonzero;fill:#ffffff;fill-opacity:1"
     transform="matrix(35.378593,0,0,35.378593,-43.798824,-0.94215252)"
     id="use17" />
  <use
     xlink:href="#i"
     width="100%"
     height="100%"
     x="69.598999"
     y="6.6680002"
     style="clip-rule:nonzero;fill:#ffffff;fill-opacity:1"
     transform="matrix(35.378593,0,0,35.378593,-43.834202,-0.94215252)"
     id="use18" />
  <use
     xlink:href="#h"
     width="100%"
     height="100%"
     x="80.905998"
     y="6.6680002"
     style="clip-rule:nonzero;fill:#ffffff;fill-opacity:1"
     transform="matrix(35.378593,0,0,35.378593,-16.026628,-0.94215252)"
     id="use19" />
  <path
     fill="#ff6666"
     d="m 433.17537,179.20564 -23.88055,15.38969 -17.97233,-4.91762 -5.30679,-1.06136 -47.12428,-9.41071 19.88277,-15.35431 17.83081,4.06854 z m 0,0"
     id="path19"
     style="stroke-width:35.3786" />
  <path
     fill="#ff3e48"
     d="m 391.28711,189.67771 -5.27141,-1.06136 v -18.78603 l 47.15967,9.4107 -23.88055,15.38969 z m 0,0"
     id="path20"
     style="stroke-width:35.3786" />
  <path
     fill="#ff6666"
     d="m 433.17537,132.08136 -19.13982,8.597 -22.71306,3.92702 h -0.10613 l -5.20066,-0.70757 -47.12428,-7.07572 22.07624,-16.06188 19.81201,3.50248 5.23603,0.74295 z m 0,0"
     id="path21"
     style="stroke-width:35.3786" />
  <path
     fill="#ff3e48"
     d="m 391.21636,144.60538 -5.20066,-0.70757 v -18.89217 l 47.15967,7.07572 -19.13982,8.597 -22.71306,3.92702 z m 0,0"
     id="path22"
     style="stroke-width:35.3786" />
  <path
     fill="#ff8597"
     d="m 433.17537,179.20564 v 18.85679 l -94.28395,23.56215 v -18.85679 l 47.12428,-11.78108 5.30679,-1.309 z m 0,0"
     id="path23"
     style="stroke-width:35.3786" />
  <path
     fill="#ff6666"
     d="m 391.28711,189.67771 41.88826,-10.47207 v 18.85679 L 386.0157,209.8435 v -18.85679 z m 0,0"
     id="path24"
     style="stroke-width:35.3786" />
  <path
     fill="#ff8597"
     d="m 433.17537,132.08136 v 18.85679 l -94.28395,28.30287 v -18.89217 l 47.12428,-14.15143 5.20066,-1.59204 h 0.10613 z m 0,0"
     id="path25"
     style="stroke-width:35.3786" />
  <path
     fill="#ff6666"
     d="m 391.28711,144.60538 41.88826,-12.52402 v 18.85679 l -47.15967,14.15143 v -18.85679 l 5.20066,-1.62741 z m 0,0"
     id="path26"
     style="stroke-width:35.3786" />
  <path
     fill="#ff8597"
     d="m 433.17537,89.662424 v 18.856786 l -47.15967,14.15144 -5.27141,1.59204 -41.85287,12.52402 v -18.85679 z m 0,0"
     id="path27"
     style="stroke-width:35.3786" />
  <path
     fill="#ff6666"
     d="m 433.17537,89.662424 v 18.856786 l -47.15967,14.15144 v -18.85679 z m 0,0"
     id="path28"
     style="stroke-width:35.3786" />
  <path
     fill="#725d57"
     d="m 442.58607,75.227958 v 9.693735 c 0,5.165274 -4.24543,9.410705 -9.4107,9.410705 h -94.28395 a 9.4460843,9.4460843 0 0 1 -9.41071,-9.410705 V 75.19258 Z m 0,0"
     id="path29"
     style="stroke-width:35.3786" />
  <path
     fill="#53433f"
     d="m 442.58607,75.227958 v 9.693735 c 0,5.165274 -4.24543,9.410705 -9.4107,9.410705 H 385.98032 V 75.19258 Z m 0,0"
     id="path30"
     style="stroke-width:35.3786" />
  <path
     fill="#725d57"
     d="m 442.58607,226.32993 v 9.76449 H 329.48071 v -9.76449 c 0,-5.16528 4.24543,-9.41071 9.41071,-9.41071 h 94.28395 c 5.16527,0 9.4107,4.24543 9.4107,9.41071 z m 0,0"
     id="path31"
     style="stroke-width:35.3786" />
  <path
     fill="#53433f"
     d="m 442.58607,226.32993 v 9.76449 H 386.0157 v -19.21058 h 47.15967 c 5.16527,0 9.4107,4.24544 9.4107,9.41071 z m 0,0"
     id="path32"
     style="stroke-width:35.3786" />
  <path
     fill="#c6e2e7"
     d="m 1132.1149,75.227958 h -33.079 v 33.043602 l 16.5218,11.03813 16.5572,-11.03813 z m 0,0"
     id="path33"
     style="stroke-width:35.3786" />
  <path
     fill="#deecf1"
     d="m 1021.8752,75.227958 h -33.07903 v 33.043602 l 16.52183,11.03813 16.5572,-11.03813 z m 0,0"
     id="path34"
     style="stroke-width:35.3786" />
  <path
     fill="#00eed0"
     d="m 1079.0823,53.151716 -13.4438,40.331596 -5.2007,-1.733551 -5.1653,-1.76893 5.1653,-15.56658 3.4317,-10.224414 h -22.0408 l 13.4438,-40.331596 5.1653,1.76893 5.2007,1.768929 -8.597,25.755616 z m 0,0"
     id="path35"
     style="stroke-width:35.3786" />
  <path
     fill="#00ddc1"
     d="m 1065.6031,27.360722 -5.1653,15.566581 V 25.591792 Z m 13.4792,25.790994 -13.4438,40.331596 -5.2007,-1.733551 v -17.33551 l 3.4317,-10.224414 h -3.4317 V 53.151716 Z m 0,0"
     id="path36"
     style="stroke-width:35.3786" />
  <path
     fill="#ff6666"
     d="m 1132.1149,108.27156 v 60.03748 a 71.641675,71.641675 0 1 1 -143.28335,0 v -60.03748 h 33.04365 v 60.03748 a 38.633424,38.633424 0 0 0 77.1607,0 v -60.03748 z m 0,0"
     id="path37"
     style="stroke-width:35.3786" />
  <path
     fill="#ff3e48"
     d="m 1132.1149,108.27156 v 60.03748 a 71.641651,71.641651 0 0 1 -71.6771,71.64165 V 206.8717 c 21.2979,0 38.5981,-17.30013 38.5981,-38.56266 v -60.03748 z m 0,0"
     id="path38"
     style="stroke-width:35.3786" />
  <path
     fill="#deecf1"
     d="m 1548.2379,53.434745 v 32.477548 h 53.4924 V 53.434745 Z m 0,0"
     id="path39"
     style="stroke-width:35.3786" />
  <path
     fill="#a8d3d8"
     d="m 1574.9841,53.434745 h 26.7462 v 32.477548 h -26.7462 z m 0,0"
     id="path40"
     style="stroke-width:35.3786" />
  <path
     fill="#00ddc1"
     d="m 1526.8338,75.19258 v 160.90184 h 96.3005 V 75.19258 Z m 0,0"
     id="path41"
     style="stroke-width:35.3786" />
  <path
     fill="#00b2ad"
     d="m 1574.9841,75.19258 h 48.1502 v 160.90184 h -48.1502 z m 0,0"
     id="path42"
     style="stroke-width:35.3786" />
  <path
     fill="#68544f"
     d="m 1591.046,107.31634 v 10.68434 h -10.7198 v 10.71971 h -10.6843 v -10.71971 h -10.7197 v -10.68434 h 10.7197 V 96.596628 h 10.6843 v 10.719712 z m -32.1238,96.30053 h 32.1238 v 10.71972 h -32.1238 z m 0,0"
     id="path43"
     style="stroke-width:35.3786" />
  <path
     fill="#deecf1"
     d="m 1548.2379,139.40473 h 53.4924 v 21.40404 h -53.4924 z m 0,32.12376 h 53.4924 v 21.40405 h -53.4924 z m 0,0"
     id="path44"
     style="stroke-width:35.3786" />
  <path
     fill="#53433f"
     d="m 1580.3616,128.72039 h -5.3775 V 96.596628 h 5.3421 v 10.719712 h 10.7198 v 10.68434 h -10.7198 z m -5.3775,74.89648 h 16.0619 v 10.71972 h -16.0619 z m 0,0"
     id="path45"
     style="stroke-width:35.3786" />
  <g
     fill="#c6e2e7"
     id="g46"
     transform="matrix(35.378593,0,0,35.378593,-1.2568702e-4,0.01306949)">
    <path
       d="m 44.518,3.94 h 0.756 v 0.605 h -0.756 z m 0,0.908 h 0.756 v 0.605 h -0.756 z m 0,0"
       id="path46" />
  </g>
  <path
     fill="#53433f"
     d="M 1901.8115,80.888533 V 58.175476 h 11.3212 v 22.677678 z m 0,0"
     id="path47"
     style="stroke-width:35.3786" />
  <path
     fill="#3e322e"
     d="m 1907.5075,58.175476 h 5.6605 v 22.677678 h -5.6605 z m 0,0"
     id="path48"
     style="stroke-width:35.3786" />
  <path
     fill="#a8d3d8"
     d="m 1853.9797,202.06021 h -20.2012 v -11.32115 h 31.5223 z m 0,0"
     id="path49"
     style="stroke-width:35.3786" />
  <path
     fill="#8ebac5"
     d="m 1981.2011,202.06021 h -20.1658 l -11.3565,-11.32115 h 31.4869 z m 0,0"
     id="path50"
     style="stroke-width:35.3786" />
  <path
     fill="#a8d3d8"
     d="m 1866.7867,202.06021 v -11.32115 h 81.4062 v 11.32115 z m 0,0"
     id="path51"
     style="stroke-width:35.3786" />
  <path
     fill="#8ebac5"
     d="m 1907.4721,202.06021 v -11.32115 h 40.7208 v 11.32115 z m 0,0"
     id="path52"
     style="stroke-width:35.3786" />
  <path
     fill="#ff6666"
     d="m 1885.9619,109.22679 -39.4825,97.75105 c -4.2454,11.78107 1.8397,24.76501 13.55,29.0812 l 45.1431,-113.7068 z m 0,0"
     id="path53"
     style="stroke-width:35.3786" />
  <path
     fill="#ff3e48"
     d="m 1968.5709,207.22549 -39.5179,-97.9987 -20.1304,10.96736 45.9922,115.90027 a 22.6423,22.6423 0 0 0 13.6561,-28.86893 z m 0,0"
     id="path54"
     style="stroke-width:35.3786" />
  <path
     fill="#deecf1"
     d="m 1901.8115,213.41674 v -34.0342 h 11.3212 v 34.0342 z m 0,0"
     id="path55"
     style="stroke-width:35.3786" />
  <path
     fill="#725d57"
     d="M 1890.4904,29.837223 V 63.87143 h 33.9988 V 29.837223 Z m 0,0"
     id="path56"
     style="stroke-width:35.3786" />
  <path
     fill="#c6e2e7"
     d="m 1913.168,213.41674 h -5.6605 v -34.0342 h 5.6605 z m 0,0"
     id="path57"
     style="stroke-width:35.3786" />
  <path
     fill="#53433f"
     d="m 1907.5075,29.837223 h 16.9817 V 63.87143 h -16.9817 z m 0,0"
     id="path58"
     style="stroke-width:35.3786" />
  <path
     fill="#deecf1"
     d="m 1907.5075,75.19258 a 28.373632,28.373632 0 1 0 0,56.71188 28.373632,28.373632 0 0 0 0,-56.71188 z m 0,0"
     id="path59"
     style="stroke-width:35.3786" />
  <path
     fill="#c6e2e7"
     d="m 1935.8457,103.56621 a 28.373632,28.373632 0 0 1 -28.3382,28.30288 V 75.227958 c 15.6373,0 28.3382,12.736294 28.3382,28.373632 z m 0,0"
     id="path60"
     style="stroke-width:35.3786" />
  <path
     fill="#a8d3d8"
     d="m 1907.5075,86.549108 a 16.981763,16.981763 0 1 0 -0.071,33.963452 16.981763,16.981763 0 0 0 0.071,-33.963452 z m 0,0"
     id="path61"
     style="stroke-width:35.3786" />
  <path
     fill="#8ebac5"
     d="M 1907.5075,120.54794 V 86.549108 a 16.999416,16.999416 0 1 1 0,33.998832 z m 0,0"
     id="path62"
     style="stroke-width:35.3786" />
  <path
     fill="#deecf1"
     d="M 1901.8115,109.22679 V 97.905636 h 11.3212 v 11.321154 z m 0,0"
     id="path63"
     style="stroke-width:35.3786" />
  <path
     fill="#c6e2e7"
     d="M 1907.5075,109.22679 V 97.905636 h 5.6605 v 11.321154 z m 0,0"
     id="path64"
     style="stroke-width:35.3786" />
  <path
     fill="#a8d3d8"
     d="m 2734.5882,101.83266 h 10.649 v 128.91959 h -10.6136 z m 0,0"
     id="path65"
     style="stroke-width:35.3786" />
  <path
     fill="#ff9f00"
     d="m 2798.8711,69.885791 h 10.649 V 112.8354 h -10.6136 z m 0,0"
     id="path66"
     style="stroke-width:35.3786" />
  <path
     fill="#fdbf00"
     d="m 2681.3434,112.517 h 10.6136 v 42.94961 h -10.6136 z m 0,0"
     id="path67"
     style="stroke-width:35.3786" />
  <path
     fill="#a8d3d8"
     d="m 2656.2246,128.11895 -3.7855,-9.97676 75.6395,-28.196737 3.7501,9.976763 z m 0,0"
     id="path68"
     style="stroke-width:35.3786" />
  <path
     fill="#8ebac5"
     d="m 2739.9304,101.83266 h 5.3068 v 128.91959 h -5.3068 z m 11.8164,-9.410706 -3.7147,-9.976763 75.604,-28.232117 3.7502,9.976763 z m 0,0"
     id="path69"
     style="stroke-width:35.3786" />
  <path
     fill="#deecf1"
     d="m 2739.9304,75.19258 a 15.955785,15.955785 0 1 0 -0.071,31.91149 15.955785,15.955785 0 0 0 0.071,-31.91149 z m 0,0"
     id="path70"
     style="stroke-width:35.3786" />
  <path
     fill="#725d57"
     d="m 2702.6414,225.41009 h 74.578 v 10.68433 h -74.578 z m 0,0"
     id="path71"
     style="stroke-width:35.3786" />
  <path
     fill="#68544f"
     d="m 2814.8622,118.17757 a 10.684335,10.684335 0 0 1 -10.6489,10.64896 10.684335,10.684335 0 0 1 -10.6843,-10.64896 10.684335,10.684335 0 0 1 21.2979,0 z m -128.212,31.94687 a 15.955755,15.955755 0 1 0 -0.035,31.91149 15.955745,15.955745 0 0 0 0,-31.91149 z m 0,21.33329 a 5.3421675,5.3421675 0 1 1 0,-10.68433 5.3421675,5.3421675 0 0 1 0,10.68433 z m 0,0"
     id="path72"
     style="stroke-width:35.3786" />
  <path
     fill="#53433f"
     d="m 2686.6502,150.12444 v 10.64896 a 5.3421675,5.3421675 0 0 1 0,10.68433 v 10.61358 a 15.973435,15.973435 0 1 0 0,-31.94687 z m 0,0"
     id="path73"
     style="stroke-width:35.3786" />
  <path
     fill="#725d57"
     d="m 2723.9393,214.05356 h -74.9319 l 10.649,-42.59583 h 53.6339 z m 0,0"
     id="path74"
     style="stroke-width:35.3786" />
  <path
     fill="#53433f"
     d="m 2723.9393,214.05356 h -37.2891 v -42.59583 h 26.6401 z m 90.9229,-95.87599 a 10.684335,10.684335 0 0 1 -10.6489,10.64896 v -21.29792 c 5.8375,0 10.6136,4.77611 10.6136,10.61358 z m 0,0"
     id="path75"
     style="stroke-width:35.3786" />
  <path
     fill="#725d57"
     d="m 2830.8534,160.7734 h -53.2802 l 10.6136,-42.59583 h 31.9822 z m 0,0"
     id="path76"
     style="stroke-width:35.3786" />
  <path
     fill="#53433f"
     d="m 2830.8534,160.7734 h -26.6401 v -42.59583 h 15.9557 z m 0,0"
     id="path77"
     style="stroke-width:35.3786" />
  <path
     fill="#c6e2e7"
     d="M 2739.9304,107.17483 V 75.19258 a 15.991125,15.991125 0 1 1 0,31.98225 z m 0,0"
     id="path78"
     style="stroke-width:35.3786" />
  <path
     fill="#53433f"
     d="m 2739.9304,225.41009 h 37.289 v 10.68433 h -37.289 z m 0,0"
     id="path79"
     style="stroke-width:35.3786" />
</svg>
